# xmcd CD database file
#
# Track frame offsets:
#	150
#	12698
#	25858
#	38993
#	50695
#	62428
#	73358
#	82275
#	92033
#	103908
#	114738
#	124595
#	135328
#	146995
#	156428
#	168785
#	181880
#	190308
#	200220
#	210748
#	222343
#	233335
#	245290
#	258085
#	270460
#	281648
#	291658
#
# Disc length: 4055 seconds
#
# Revision: 3
# Processed by: cddbd v1.5.2PL0 Copyright (c) Steve Scherf et al.
# Submitted via: jetAudio 7
#
DISCID=a70fd51b
DTITLE=Robert And Johnny - We Belong Together
DYEAR=1900
DGENRE=Oldies
TTITLE0=We Belong Together
TTITLE1=Broken Hearted Man
TTITLE2=I Don't Stand A Ghost Of A Chance
TTITLE3=Baby Come Home
TTITLE4=You're Mine
TTITLE5=Eternity With You
TTITLE6=Dream Girl
TTITLE7=Oh My Love
TTITLE8=Million Dollar Bills
TTITLE9=I Got You
TTITLE10=Give Me The Key To Your Heart
TTITLE11=Wear This Ring
TTITLE12=Gosh Oh Gee
TTITLE13=Don't Do It
TTITLE14=I Believe In You
TTITLE15=God Knows
TTITLE16=Bad Dan
TTITLE17=Indian Marriage
TTITLE18=Your Kisses
TTITLE19=Baby Baby
TTITLE20=Hear My Heartbeat
TTITLE21=Togetherness
TTITLE22=I'm Truly Truly Yours
TTITLE23=Please Me Please
TTITLE24=Try Me Pretty Baby
TTITLE25=Baby Girl Of Mine
TTITLE26=Train To Paradise
EXTD=El Garash Productions
EXTT0=
EXTT1=
EXTT2=
EXTT3=
EXTT4=
EXTT5=
EXTT6=
EXTT7=
EXTT8=
EXTT9=
EXTT10=
EXTT11=
EXTT12=
EXTT13=
EXTT14=
EXTT15=
EXTT16=
EXTT17=
EXTT18=
EXTT19=
EXTT20=
EXTT21=
EXTT22=
EXTT23=
EXTT24=
EXTT25=
EXTT26=
PLAYORDER=
